<svg xmlns="http://www.w3.org/2000/svg" xmlns:xlink="http://www.w3.org/1999/xlink" width="500" zoomAndPan="magnify" viewBox="0 0 375 374.999991" height="500" preserveAspectRatio="xMidYMid meet" version="1.0"><defs><g/><clipPath id="id1"><path d="M 110.335938 75.894531 L 246 75.894531 L 246 211 L 110.335938 211 Z M 110.335938 75.894531 " clip-rule="nonzero"/></clipPath><clipPath id="id2"><path d="M 169 135 L 262 135 L 262 227.394531 L 169 227.394531 Z M 169 135 " clip-rule="nonzero"/></clipPath><clipPath id="id3"><path d="M 143 109 L 263 109 L 263 227.394531 L 143 227.394531 Z M 143 109 " clip-rule="nonzero"/></clipPath></defs><rect x="-37.5" width="450" fill="#ffffff" y="-37.499999" height="449.999989" fill-opacity="1"/><rect x="-37.5" width="450" fill="#f0efec" y="-37.499999" height="449.999989" fill-opacity="1"/><rect x="-37.5" width="450" fill="#ffffff" y="-37.499999" height="449.999989" fill-opacity="1"/><rect x="-37.5" width="450" fill="#f0efec" y="-37.499999" height="449.999989" fill-opacity="1"/><g fill="#100f0d" fill-opacity="1"><g transform="translate(94.183592, 265.619397)"><g><path d="M 19.621094 -10.367188 C 18.46875 -7.414062 16.378906 -5.507812 13.894531 -4.609375 L 14.21875 -5.363281 C 15.226562 -8.101562 16.273438 -11.089844 17.28125 -13.859375 C 17.496094 -14.472656 17.605469 -15.085938 17.605469 -15.730469 C 17.605469 -18.648438 15.191406 -21.132812 12.382812 -21.132812 C 11.410156 -21.132812 10.261719 -20.953125 9.46875 -20.304688 C 9.539062 -21.167969 8.351562 -21.851562 7.054688 -21.851562 C 5.867188 -21.851562 4.714844 -21.203125 4.175781 -19.691406 L -4.789062 5.652344 C -4.96875 6.121094 -5.039062 6.515625 -5.039062 6.875 C -5.039062 8.351562 -3.816406 9.109375 -2.519531 9.109375 C -1.332031 9.109375 -0.144531 8.53125 0.289062 7.199219 L 3.167969 -1.332031 C 4.285156 -0.46875 6.445312 0 9.433594 0 C 16.414062 0 21.636719 -2.773438 24.011719 -9.574219 C 24.121094 -9.898438 24.191406 -10.1875 24.191406 -10.441406 C 24.191406 -11.628906 23.183594 -12.347656 22.105469 -12.347656 C 21.132812 -12.347656 20.050781 -11.734375 19.621094 -10.367188 Z M 5.074219 -6.625 L 7.957031 -14.976562 C 8.386719 -16.273438 9.324219 -16.882812 10.332031 -16.882812 C 11.195312 -16.882812 11.988281 -16.273438 11.988281 -15.371094 C 11.988281 -15.046875 11.914062 -14.722656 11.808594 -14.363281 C 10.90625 -11.519531 9.898438 -8.855469 8.929688 -6.046875 C 8.53125 -4.96875 7.558594 -4.320312 6.589844 -4.285156 C 5.652344 -4.285156 4.933594 -4.789062 4.933594 -5.796875 C 4.933594 -6.046875 4.96875 -6.335938 5.074219 -6.625 Z M 5.074219 -6.625 "/></g></g></g><g fill="#100f0d" fill-opacity="1"><g transform="translate(112.615628, 265.619397)"><g><path d="M 15.226562 -7.523438 C 15.226562 -7.488281 15.226562 -8.0625 15.085938 -8.746094 C 15.335938 -8.929688 15.589844 -9.214844 15.804688 -9.539062 C 16.414062 -10.441406 17.496094 -13.570312 17.496094 -15.011719 C 17.496094 -18.683594 14.472656 -21.132812 10.585938 -21.132812 C 7.199219 -21.132812 3.996094 -19.261719 2.84375 -16.054688 L 0.214844 -8.640625 C -0.109375 -7.738281 -0.253906 -6.839844 -0.253906 -6.046875 C -0.253906 -2.269531 2.988281 0 6.660156 0 C 9.46875 0 12.023438 -0.898438 13.535156 -3.492188 C 14.183594 -3.3125 14.941406 -3.203125 15.695312 -3.203125 C 19.945312 -3.203125 23.292969 -6.226562 24.515625 -10.007812 C 24.625 -10.402344 24.695312 -10.765625 24.695312 -11.089844 C 24.695312 -12.421875 23.722656 -13.175781 22.679688 -13.175781 C 21.707031 -13.175781 20.699219 -12.601562 20.304688 -11.269531 C 19.511719 -9.035156 17.855469 -7.488281 15.730469 -7.488281 C 15.589844 -7.488281 15.371094 -7.488281 15.226562 -7.523438 Z M 11.878906 -13.066406 C 11.773438 -12.742188 11.664062 -12.457031 11.628906 -12.167969 C 9.648438 -12.382812 7.882812 -10.765625 7.882812 -8.605469 C 7.921875 -7.378906 8.53125 -6.730469 9.214844 -6.15625 C 8.746094 -4.894531 7.703125 -4.285156 6.589844 -4.285156 C 5.183594 -4.285156 4.824219 -5.148438 4.824219 -6.011719 C 4.824219 -6.695312 5.003906 -7.34375 5.148438 -7.703125 L 7.703125 -15.011719 C 8.136719 -16.199219 9.394531 -16.882812 10.511719 -16.882812 C 11.628906 -16.882812 12.347656 -16.128906 12.347656 -15.300781 C 12.347656 -14.652344 12.132812 -13.824219 11.878906 -13.066406 Z M 11.878906 -13.066406 "/></g></g></g><g fill="#100f0d" fill-opacity="1"><g transform="translate(131.407662, 265.619397)"><g><path d="M 19.117188 -10.1875 C 18.253906 -8.0625 16.992188 -6.589844 15.335938 -5.617188 C 15.40625 -6.085938 15.480469 -6.515625 15.480469 -6.984375 C 15.480469 -9.070312 14.363281 -11.050781 13.355469 -12.742188 C 12.636719 -13.96875 11.914062 -15.191406 11.773438 -16.308594 C 12.78125 -16.738281 13.570312 -17.890625 13.570312 -18.972656 C 13.570312 -20.519531 12.382812 -21.960938 10.585938 -21.960938 C 9.214844 -21.960938 7.847656 -21.277344 7.164062 -19.871094 C 5.761719 -17.136719 4.246094 -14.363281 2.808594 -11.664062 C 0.394531 -11.050781 -0.792969 -8.316406 -0.792969 -6.011719 C -0.792969 -2.484375 2.734375 0.253906 9.109375 0.253906 C 15.371094 0.253906 20.988281 -2.125 23.507812 -9.394531 C 23.578125 -9.539062 23.578125 -9.71875 23.578125 -9.863281 C 23.578125 -10.90625 22.390625 -11.664062 21.238281 -11.664062 C 20.375 -11.664062 19.511719 -11.230469 19.117188 -10.1875 Z M 7.703125 -11.160156 L 8.027344 -11.84375 C 9.109375 -10.546875 9.972656 -8.820312 9.972656 -7.128906 C 9.972656 -5.4375 9.070312 -4.03125 7.164062 -3.960938 C 5.941406 -3.960938 4.859375 -4.5 4.464844 -5.4375 C 4.753906 -5.363281 5.039062 -5.363281 5.292969 -5.363281 C 7.378906 -5.363281 8.605469 -7.128906 8.605469 -8.890625 C 8.605469 -9.71875 8.316406 -10.546875 7.703125 -11.160156 Z M 7.703125 -11.160156 "/></g></g></g><g fill="#100f0d" fill-opacity="1"><g transform="translate(149.371692, 265.619397)"><g><path d="M 4.96875 -6.191406 L 8.964844 -17.53125 C 9.109375 -17.929688 9.179688 -18.289062 9.179688 -18.648438 C 9.179688 -20.125 7.882812 -21.132812 6.550781 -21.132812 C 5.542969 -21.132812 4.464844 -20.519531 3.960938 -19.078125 L -0.394531 -6.695312 C -0.648438 -6.011719 -0.757812 -5.328125 -0.757812 -4.679688 C -0.757812 -2.230469 0.972656 -0.46875 3.3125 0 C -1.078125 0.972656 -5.4375 2.773438 -5.4375 7.199219 C -5.4375 10.691406 -2.195312 12.996094 1.332031 12.996094 C 4.894531 12.996094 8.242188 11.089844 9.757812 6.910156 C 10.261719 5.398438 10.835938 3.816406 11.375 2.339844 C 16.523438 0.71875 21.816406 -2.089844 24.300781 -9.648438 C 24.40625 -9.9375 24.445312 -10.222656 24.445312 -10.476562 C 24.445312 -11.699219 23.507812 -12.421875 22.429688 -12.421875 C 21.457031 -12.421875 20.410156 -11.808594 19.90625 -10.402344 C 18.574219 -6.730469 16.164062 -4.570312 13.355469 -3.132812 L 18.433594 -17.785156 C 18.539062 -18.109375 18.574219 -18.394531 18.574219 -18.648438 C 18.574219 -20.125 17.28125 -21.132812 15.949219 -21.132812 C 14.941406 -21.132812 13.859375 -20.519531 13.355469 -19.078125 L 9.214844 -6.910156 C 8.0625 -4.96875 6.804688 -4.246094 5.832031 -4.246094 C 5.183594 -4.246094 4.789062 -4.644531 4.789062 -5.292969 C 4.789062 -5.542969 4.859375 -5.867188 4.96875 -6.191406 Z M 4.789062 3.996094 L 3.925781 6.445312 C 3.421875 7.777344 2.304688 8.460938 1.222656 8.460938 C 0.394531 8.460938 0.0351562 7.957031 0.0351562 7.308594 C 0.0351562 7.09375 0.0703125 6.804688 0.179688 6.550781 C 0.683594 5.292969 2.449219 4.609375 4.789062 3.996094 Z M 4.789062 3.996094 "/></g></g></g><g fill="#100f0d" fill-opacity="1"><g transform="translate(168.09173, 265.619397)"><g/></g></g><g fill="#100f0d" fill-opacity="1"><g transform="translate(181.843762, 265.619397)"><g><path d="M 25.308594 -10.691406 C 24.550781 -8.460938 23.113281 -6.984375 21.132812 -6.984375 L 21.097656 -6.984375 C 21.886719 -8.351562 22.429688 -10.117188 22.429688 -11.953125 C 22.429688 -13.859375 21.816406 -15.839844 20.304688 -17.460938 C 22.714844 -19.078125 24.371094 -22.246094 24.371094 -25.019531 C 24.371094 -28.691406 21.601562 -30.886719 18.46875 -31.210938 C 18.144531 -31.246094 17.746094 -31.285156 17.242188 -31.285156 C 16.234375 -31.285156 14.902344 -31.140625 13.535156 -30.457031 C 13.535156 -31.644531 12.457031 -32.363281 11.230469 -32.363281 C 10.007812 -32.363281 8.640625 -31.609375 8.136719 -29.953125 L -1.296875 -3.277344 C -1.476562 -2.808594 -1.546875 -2.339844 -1.546875 -1.980469 C -1.546875 -0.503906 -0.433594 0.359375 0.792969 0.359375 C 2.050781 0.359375 3.457031 -0.539062 3.816406 -2.519531 C 5.074219 -0.71875 7.847656 0.394531 10.691406 0.394531 C 13.429688 0.394531 16.34375 -0.539062 18.503906 -2.773438 C 19.1875 -2.554688 19.90625 -2.449219 20.773438 -2.449219 C 24.984375 -2.449219 28.367188 -5.363281 29.628906 -9.757812 C 29.664062 -9.9375 29.699219 -10.117188 29.699219 -10.261719 C 29.699219 -11.449219 28.546875 -12.132812 27.394531 -12.132812 C 26.496094 -12.132812 25.597656 -11.699219 25.308594 -10.691406 Z M 12.421875 -21.132812 C 11.269531 -20.664062 10.222656 -19.1875 10.222656 -17.53125 C 10.222656 -17.207031 10.261719 -16.882812 10.332031 -16.558594 C 10.945312 -14.652344 12.5625 -14.074219 13.933594 -14.074219 C 14.472656 -14.074219 14.976562 -14.148438 15.335938 -14.292969 C 16.234375 -14.074219 16.738281 -13.285156 16.738281 -12.097656 C 16.738281 -11.484375 16.632812 -10.800781 16.34375 -10.007812 C 15.046875 -11.269531 13.105469 -12.203125 10.691406 -12.238281 C 9.539062 -12.238281 8.171875 -12.058594 7.273438 -11.664062 L 11.59375 -23.617188 C 12.492188 -25.378906 14.507812 -26.242188 16.054688 -26.242188 C 17.351562 -26.242188 18.394531 -25.453125 18.394531 -24.226562 C 18.394531 -23.183594 17.890625 -21.457031 16.164062 -20.734375 C 15.804688 -21.023438 14.832031 -21.382812 13.789062 -21.382812 C 13.320312 -21.382812 12.851562 -21.3125 12.421875 -21.132812 Z M 10.296875 -4.140625 C 8.964844 -4.140625 8.207031 -4.753906 8.207031 -5.578125 C 8.207031 -5.761719 8.207031 -5.941406 8.28125 -6.121094 C 8.566406 -7.054688 9.503906 -7.703125 10.871094 -7.703125 C 12.347656 -7.703125 13.285156 -6.910156 14.257812 -5.941406 C 13.140625 -4.714844 11.59375 -4.140625 10.296875 -4.140625 Z M 10.296875 -4.140625 "/></g></g></g><g fill="#100f0d" fill-opacity="1"><g transform="translate(205.855811, 265.619397)"><g><path d="M 22.570312 -12.167969 C 21.5625 -12.167969 20.449219 -11.554688 20.015625 -10.1875 C 18.613281 -5.761719 16.34375 -4.285156 14.722656 -4.285156 C 14.113281 -4.285156 13.753906 -4.609375 13.753906 -5.183594 C 13.753906 -5.472656 13.824219 -5.832031 13.933594 -6.226562 L 17.964844 -17.890625 C 18.109375 -18.324219 18.179688 -18.71875 18.179688 -19.078125 C 18.179688 -20.664062 16.882812 -21.492188 15.550781 -21.492188 C 14.542969 -21.492188 13.5 -21.023438 12.925781 -20.125 C 12.167969 -20.59375 10.765625 -21.132812 8.929688 -21.132812 C 6.550781 -21.132812 3.960938 -19.835938 2.988281 -17.0625 L -0.394531 -7.378906 C -0.613281 -6.730469 -0.757812 -6.085938 -0.757812 -5.4375 C -0.757812 -2.449219 1.65625 0 4.824219 0 C 6.515625 0 8.242188 -0.757812 9.574219 -1.945312 C 10.726562 -0.289062 13.285156 0 14.363281 0 C 17.351562 0 21.347656 -1.511719 23.652344 -7.34375 C 24.15625 -8.746094 24.550781 -9.648438 24.550781 -10.296875 C 24.550781 -11.519531 23.617188 -12.167969 22.570312 -12.167969 Z M 10.691406 -12.527344 L 8.964844 -7.164062 C 8.207031 -4.824219 6.839844 -4.285156 6.085938 -4.285156 C 5.292969 -4.285156 4.894531 -4.789062 4.894531 -5.617188 C 4.894531 -6.085938 5.003906 -6.515625 5.113281 -6.839844 L 7.414062 -14.074219 C 8.101562 -16.273438 9.109375 -16.558594 9.683594 -16.558594 C 10.367188 -16.558594 11.125 -15.875 11.125 -14.652344 C 11.125 -14.113281 10.980469 -13.429688 10.691406 -12.527344 Z M 10.691406 -12.527344 "/></g></g></g><g fill="#100f0d" fill-opacity="1"><g transform="translate(224.755853, 265.619397)"><g><path d="M 19.945312 -10.042969 C 18.683594 -6.40625 16.847656 -4.285156 15.046875 -4.285156 C 14.542969 -4.285156 14.363281 -4.570312 14.363281 -4.894531 C 14.363281 -5.183594 14.4375 -5.542969 14.542969 -5.867188 C 15.085938 -7.558594 15.265625 -7.992188 15.265625 -8.890625 C 15.265625 -9.757812 15.046875 -10.511719 14.542969 -11.050781 C 15.550781 -11.628906 16.488281 -12.527344 17.027344 -13.96875 C 17.242188 -14.578125 17.386719 -15.265625 17.386719 -15.910156 C 17.386719 -18.683594 15.191406 -21.132812 12.058594 -21.132812 C 11.375 -21.132812 10.835938 -21.097656 10.1875 -20.878906 L 12.421875 -27.324219 C 12.601562 -27.828125 12.742188 -28.296875 12.742188 -28.726562 C 12.742188 -30.3125 11.554688 -31.246094 10.296875 -31.246094 C 9.109375 -31.246094 8.101562 -30.457031 7.488281 -28.726562 L -1.511719 -2.734375 C -1.585938 -2.449219 -1.621094 -2.230469 -1.621094 -1.980469 C -1.621094 -0.683594 -0.503906 0 0.71875 0 C 2.015625 0 3.382812 -0.757812 3.851562 -2.195312 L 6.046875 -9.070312 C 6.804688 -8.351562 7.558594 -8.136719 8.207031 -8.136719 C 8.929688 -8.136719 9.503906 -8.386719 9.828125 -8.53125 C 10.078125 -8.640625 9.71875 -7.882812 9.574219 -7.523438 C 9.214844 -6.550781 9.035156 -5.578125 9.035156 -4.679688 C 9.035156 -1.90625 10.765625 0 14.292969 0 C 19.152344 0 22.570312 -3.742188 24.371094 -9.324219 C 24.445312 -9.539062 24.480469 -9.71875 24.480469 -9.898438 C 24.480469 -10.980469 23.363281 -11.628906 22.246094 -11.628906 C 21.277344 -11.628906 20.269531 -11.160156 19.945312 -10.042969 Z M 7.453125 -13.066406 L 8.101562 -14.902344 C 8.746094 -16.199219 9.863281 -16.882812 10.90625 -16.882812 C 11.808594 -16.882812 12.492188 -16.414062 12.492188 -15.625 C 12.492188 -15.40625 12.457031 -15.191406 12.347656 -14.941406 C 12.023438 -14.113281 11.269531 -13.535156 10.402344 -13.285156 C 9.972656 -13.355469 9.574219 -13.429688 9.179688 -13.429688 C 8.460938 -13.429688 7.847656 -13.285156 7.453125 -13.066406 Z M 7.453125 -13.066406 "/></g></g></g><g fill="#100f0d" fill-opacity="1"><g transform="translate(243.619893, 265.619397)"><g><path d="M 18.214844 -10.152344 C 16.632812 -5.976562 12.851562 -4.285156 9.792969 -4.285156 C 7.164062 -4.285156 5.507812 -5.542969 5.507812 -7.199219 C 5.507812 -7.523438 5.542969 -7.847656 5.6875 -8.207031 L 5.976562 -8.890625 C 7.019531 -8.242188 8.316406 -7.8125 9.757812 -7.8125 C 13.03125 -7.8125 15.910156 -9.863281 16.882812 -13.105469 C 17.0625 -13.789062 17.171875 -14.472656 17.171875 -15.085938 C 17.171875 -18.503906 14.472656 -21.132812 10.402344 -21.132812 C 7.199219 -21.132812 4.066406 -19.261719 2.808594 -15.660156 L 0.683594 -9.503906 C 0.394531 -8.640625 0.214844 -7.777344 0.214844 -6.949219 C 0.214844 -2.664062 4.246094 0 9.503906 0 C 14.507812 0 20.195312 -2.449219 22.570312 -9.324219 C 22.679688 -9.613281 22.714844 -9.863281 22.714844 -10.078125 C 22.714844 -11.195312 21.707031 -11.808594 20.628906 -11.808594 C 19.621094 -11.808594 18.539062 -11.269531 18.214844 -10.152344 Z M 10.296875 -16.882812 C 11.304688 -16.882812 11.953125 -16.054688 11.953125 -15.011719 C 11.953125 -14.722656 11.914062 -14.4375 11.808594 -14.148438 C 11.449219 -12.960938 10.367188 -12.527344 9.289062 -12.527344 C 8.605469 -12.527344 7.921875 -12.671875 7.414062 -12.960938 L 8.171875 -15.121094 C 8.566406 -16.234375 9.46875 -16.882812 10.296875 -16.882812 Z M 10.296875 -16.882812 "/></g></g></g><g fill="#100f0d" fill-opacity="1"><g transform="translate(260.683925, 265.619397)"><g><path d="M 18.253906 -10.441406 C 16.882812 -6.910156 15.046875 -4.285156 13.535156 -4.285156 C 13.03125 -4.285156 12.78125 -4.753906 12.78125 -5.257812 C 12.78125 -5.472656 12.816406 -5.761719 12.925781 -6.046875 L 15.046875 -11.953125 C 15.265625 -12.671875 15.40625 -13.320312 15.40625 -13.933594 C 15.40625 -17.351562 11.089844 -18.792969 9.070312 -19.402344 C 9.179688 -19.691406 9.214844 -20.015625 9.214844 -20.304688 C 9.214844 -21.960938 7.738281 -23.363281 6.121094 -23.363281 C 3.996094 -23.363281 2.734375 -21.492188 2.734375 -19.441406 C 2.734375 -18.539062 3.058594 -17.605469 3.636719 -16.882812 L 1.007812 -9.792969 C 0.9375 -9.503906 0.898438 -9.214844 0.898438 -9 C 0.898438 -7.8125 1.835938 -7.199219 2.84375 -7.199219 C 3.851562 -7.199219 4.894531 -7.777344 5.328125 -8.929688 L 7.34375 -14.328125 C 8.351562 -14.003906 9.683594 -13.753906 9.683594 -12.527344 C 9.683594 -12.347656 9.648438 -12.132812 9.574219 -11.878906 L 7.992188 -7.488281 C 7.703125 -6.660156 7.558594 -5.902344 7.558594 -5.183594 C 7.558594 -2.050781 10.042969 0 13.03125 0 C 16.957031 0 20.519531 -3.492188 22.644531 -9.574219 C 22.714844 -9.792969 22.753906 -9.972656 22.753906 -10.152344 C 22.753906 -11.230469 21.5625 -11.953125 20.410156 -11.953125 C 19.476562 -11.953125 18.574219 -11.519531 18.253906 -10.441406 Z M 18.253906 -10.441406 "/></g></g></g><g fill="#100f0d" fill-opacity="1"><g transform="translate(277.711955, 265.619397)"><g><path d="M 4.96875 -6.191406 L 8.964844 -17.53125 C 9.109375 -17.929688 9.179688 -18.289062 9.179688 -18.648438 C 9.179688 -20.125 7.882812 -21.132812 6.550781 -21.132812 C 5.542969 -21.132812 4.464844 -20.519531 3.960938 -19.078125 L -0.394531 -6.695312 C -0.648438 -6.011719 -0.757812 -5.328125 -0.757812 -4.679688 C -0.757812 -2.230469 0.972656 -0.46875 3.3125 0 C -1.078125 0.972656 -5.4375 2.773438 -5.4375 7.199219 C -5.4375 10.691406 -2.195312 12.996094 1.332031 12.996094 C 4.894531 12.996094 8.242188 11.089844 9.757812 6.910156 C 10.261719 5.398438 10.835938 3.816406 11.375 2.339844 C 16.523438 0.71875 21.816406 -2.089844 24.300781 -9.648438 C 24.40625 -9.9375 24.445312 -10.222656 24.445312 -10.476562 C 24.445312 -11.699219 23.507812 -12.421875 22.429688 -12.421875 C 21.457031 -12.421875 20.410156 -11.808594 19.90625 -10.402344 C 18.574219 -6.730469 16.164062 -4.570312 13.355469 -3.132812 L 18.433594 -17.785156 C 18.539062 -18.109375 18.574219 -18.394531 18.574219 -18.648438 C 18.574219 -20.125 17.28125 -21.132812 15.949219 -21.132812 C 14.941406 -21.132812 13.859375 -20.519531 13.355469 -19.078125 L 9.214844 -6.910156 C 8.0625 -4.96875 6.804688 -4.246094 5.832031 -4.246094 C 5.183594 -4.246094 4.789062 -4.644531 4.789062 -5.292969 C 4.789062 -5.542969 4.859375 -5.867188 4.96875 -6.191406 Z M 4.789062 3.996094 L 3.925781 6.445312 C 3.421875 7.777344 2.304688 8.460938 1.222656 8.460938 C 0.394531 8.460938 0.0351562 7.957031 0.0351562 7.308594 C 0.0351562 7.09375 0.0703125 6.804688 0.179688 6.550781 C 0.683594 5.292969 2.449219 4.609375 4.789062 3.996094 Z M 4.789062 3.996094 "/></g></g></g><g fill="#f08525" fill-opacity="1"><g transform="translate(143.397843, 295.806485)"><g><path d="M 0.921875 0 L 0.921875 -8.40625 L 2.8125 -8.40625 L 2.8125 -4.890625 L 6.625 -4.890625 L 6.625 -8.40625 L 8.515625 -8.40625 L 8.515625 0 L 6.625 0 L 6.625 -3.3125 L 2.8125 -3.3125 L 2.8125 0 Z M 0.921875 0 "/></g></g></g><g fill="#f08525" fill-opacity="1"><g transform="translate(153.957861, 295.806485)"><g><path d="M 4.84375 -8.53125 C 5.675781 -8.53125 6.4375 -8.34375 7.125 -7.96875 C 7.8125 -7.59375 8.351562 -7.070312 8.75 -6.40625 C 9.144531 -5.75 9.34375 -5.019531 9.34375 -4.21875 C 9.34375 -3.40625 9.144531 -2.664062 8.75 -2 C 8.351562 -1.34375 7.8125 -0.820312 7.125 -0.4375 C 6.4375 -0.0625 5.675781 0.125 4.84375 0.125 C 4 0.125 3.234375 -0.0625 2.546875 -0.4375 C 1.859375 -0.820312 1.316406 -1.34375 0.921875 -2 C 0.523438 -2.65625 0.328125 -3.394531 0.328125 -4.21875 C 0.328125 -5.019531 0.523438 -5.75 0.921875 -6.40625 C 1.316406 -7.070312 1.851562 -7.59375 2.53125 -7.96875 C 3.21875 -8.34375 3.988281 -8.53125 4.84375 -8.53125 Z M 4.859375 -6.875 C 4.390625 -6.875 3.957031 -6.753906 3.5625 -6.515625 C 3.164062 -6.285156 2.847656 -5.960938 2.609375 -5.546875 C 2.378906 -5.140625 2.265625 -4.695312 2.265625 -4.21875 C 2.265625 -3.71875 2.378906 -3.265625 2.609375 -2.859375 C 2.847656 -2.453125 3.164062 -2.128906 3.5625 -1.890625 C 3.957031 -1.648438 4.390625 -1.53125 4.859375 -1.53125 C 5.328125 -1.53125 5.753906 -1.644531 6.140625 -1.875 C 6.523438 -2.113281 6.832031 -2.4375 7.0625 -2.84375 C 7.289062 -3.257812 7.40625 -3.71875 7.40625 -4.21875 C 7.40625 -4.695312 7.289062 -5.140625 7.0625 -5.546875 C 6.832031 -5.960938 6.523438 -6.285156 6.140625 -6.515625 C 5.753906 -6.753906 5.328125 -6.875 4.859375 -6.875 Z M 4.859375 -6.875 "/></g></g></g><g fill="#f08525" fill-opacity="1"><g transform="translate(164.74588, 295.806485)"><g><path d="M 0.921875 0 L 0.921875 -8.40625 L 3.03125 -8.40625 L 5.65625 -3.234375 L 8.25 -8.40625 L 10.34375 -8.40625 L 10.34375 0 L 8.640625 0 L 8.640625 -5.671875 L 6.25 -0.859375 L 5.03125 -0.859375 L 2.625 -5.671875 L 2.625 0 Z M 0.921875 0 "/></g></g></g><g fill="#f08525" fill-opacity="1"><g transform="translate(177.141898, 295.806485)"><g><path d="M 0.921875 0 L 0.921875 -8.40625 L 7.3125 -8.40625 L 7.3125 -6.828125 L 2.8125 -6.828125 L 2.8125 -5 L 6.859375 -5 L 6.859375 -3.4375 L 2.8125 -3.4375 L 2.8125 -1.578125 L 7.453125 -1.578125 L 7.453125 0 Z M 0.921875 0 "/></g></g></g><g fill="#f08525" fill-opacity="1"><g transform="translate(186.273911, 295.806485)"><g><path d="M 0.921875 0 L 0.921875 -8.40625 L 3.03125 -8.40625 L 5.65625 -3.234375 L 8.25 -8.40625 L 10.34375 -8.40625 L 10.34375 0 L 8.640625 0 L 8.640625 -5.671875 L 6.25 -0.859375 L 5.03125 -0.859375 L 2.625 -5.671875 L 2.625 0 Z M 0.921875 0 "/></g></g></g><g fill="#f08525" fill-opacity="1"><g transform="translate(198.66993, 295.806485)"><g><path d="M 9.15625 0 L 7.125 0 L 6.46875 -1.625 L 2.578125 -1.625 L 1.921875 0 L -0.03125 0 L 3.609375 -8.40625 L 5.5625 -8.40625 Z M 4.53125 -6.421875 L 3.203125 -3.15625 L 5.859375 -3.15625 Z M 4.53125 -6.421875 "/></g></g></g><g fill="#f08525" fill-opacity="1"><g transform="translate(208.893949, 295.806485)"><g><path d="M 4.484375 -8.40625 C 5.335938 -8.40625 6.097656 -8.222656 6.765625 -7.859375 C 7.441406 -7.503906 7.96875 -7.007812 8.34375 -6.375 C 8.71875 -5.738281 8.90625 -5.015625 8.90625 -4.203125 C 8.90625 -3.378906 8.710938 -2.648438 8.328125 -2.015625 C 7.953125 -1.378906 7.421875 -0.882812 6.734375 -0.53125 C 6.054688 -0.175781 5.285156 0 4.421875 0 L 0.921875 0 L 0.921875 -8.40625 Z M 4.53125 -1.59375 C 5 -1.59375 5.414062 -1.703125 5.78125 -1.921875 C 6.15625 -2.140625 6.445312 -2.445312 6.65625 -2.84375 C 6.863281 -3.238281 6.96875 -3.6875 6.96875 -4.1875 C 6.96875 -4.6875 6.859375 -5.132812 6.640625 -5.53125 C 6.421875 -5.9375 6.117188 -6.25 5.734375 -6.46875 C 5.359375 -6.6875 4.929688 -6.796875 4.453125 -6.796875 L 2.8125 -6.796875 L 2.8125 -1.59375 Z M 4.53125 -1.59375 "/></g></g></g><g fill="#f08525" fill-opacity="1"><g transform="translate(219.237971, 295.806485)"><g><path d="M 0.921875 0 L 0.921875 -8.40625 L 7.3125 -8.40625 L 7.3125 -6.828125 L 2.8125 -6.828125 L 2.8125 -5 L 6.859375 -5 L 6.859375 -3.4375 L 2.8125 -3.4375 L 2.8125 -1.578125 L 7.453125 -1.578125 L 7.453125 0 Z M 0.921875 0 "/></g></g></g><g fill="#f08525" fill-opacity="1"><g transform="translate(228.358775, 295.806485)"><g/></g></g><path fill="#f0daba" d="M 203.101562 85.855469 C 207.671875 90.734375 214.128906 93.402344 220.808594 93.179688 C 234.214844 92.71875 245.207031 103.683594 244.757812 117.074219 C 244.527344 123.742188 247.195312 130.183594 252.085938 134.746094 C 261.886719 143.886719 261.886719 159.402344 252.085938 168.542969 C 247.195312 173.101562 244.527344 179.546875 244.757812 186.210938 C 245.207031 199.601562 234.214844 210.566406 220.808594 210.117188 C 214.128906 209.886719 207.671875 212.550781 203.101562 217.433594 C 193.945312 227.214844 178.398438 227.214844 169.242188 217.433594 C 164.671875 212.550781 158.214844 209.886719 151.539062 210.117188 C 138.132812 210.566406 127.136719 199.601562 127.589844 186.210938 C 127.820312 179.546875 125.148438 173.101562 120.257812 168.542969 C 110.457031 159.402344 110.457031 143.886719 120.257812 134.746094 C 125.148438 130.183594 127.820312 123.742188 127.589844 117.074219 C 127.136719 103.683594 138.132812 92.71875 151.539062 93.179688 C 158.214844 93.402344 164.671875 90.734375 169.242188 85.855469 C 178.398438 76.074219 193.945312 76.074219 203.101562 85.855469 " fill-opacity="1" fill-rule="nonzero"/><path fill="#d57424" d="M 251.164062 111.875 C 248.3125 111.875 245.671875 113.335938 244.15625 115.753906 L 233.730469 132.398438 L 238.871094 137.53125 L 255.550781 127.128906 C 257.972656 125.613281 259.4375 122.980469 259.4375 120.132812 C 259.4375 115.570312 255.734375 111.875 251.164062 111.875 " fill-opacity="1" fill-rule="nonzero"/><path fill="#d57424" d="M 150.210938 209.515625 C 147.792969 211.027344 146.328125 213.675781 146.328125 216.511719 C 146.328125 221.070312 150.03125 224.769531 154.601562 224.769531 C 157.453125 224.769531 160.09375 223.304688 161.609375 220.890625 L 172.035156 204.242188 L 166.890625 199.109375 L 150.210938 209.515625 " fill-opacity="1" fill-rule="nonzero"/><path fill="#ef932c" d="M 179.746094 211.941406 L 159.179688 191.414062 L 226.019531 124.703125 L 246.585938 145.230469 L 179.746094 211.941406 " fill-opacity="1" fill-rule="nonzero"/><path fill="#f08525" d="M 179.746094 211.941406 L 170.75 202.960938 L 237.585938 136.25 L 246.585938 145.230469 L 179.746094 211.941406 " fill-opacity="1" fill-rule="nonzero"/><path fill="#e6c9a5" d="M 183.070312 152.175781 L 158.648438 127.800781 L 162.28125 124.171875 L 186.703125 148.546875 L 183.070312 152.175781 " fill-opacity="1" fill-rule="nonzero"/><path fill="#e6c9a5" d="M 195.921875 139.34375 L 177.929688 121.386719 L 181.5625 117.757812 L 199.558594 135.71875 L 195.921875 139.34375 " fill-opacity="1" fill-rule="nonzero"/><path fill="#e6c9a5" d="M 170.214844 165.003906 L 152.222656 147.042969 L 155.855469 143.414062 L 173.851562 161.375 L 170.214844 165.003906 " fill-opacity="1" fill-rule="nonzero"/><path fill="#e6c9a5" d="M 157.363281 177.832031 L 147.078125 167.570312 L 150.714844 163.941406 L 160.996094 174.203125 L 157.363281 177.832031 " fill-opacity="1" fill-rule="nonzero"/><path fill="#e6c9a5" d="M 208.777344 126.515625 L 198.492188 116.253906 L 202.128906 112.625 L 212.414062 122.886719 L 208.777344 126.515625 " fill-opacity="1" fill-rule="nonzero"/><g clip-path="url(#id1)"><path fill="#100f0d" d="M 240.367188 107.804688 L 245.046875 105.679688 C 240.71875 96.179688 231.160156 90.253906 220.726562 90.617188 C 214.761719 90.835938 209.039062 88.441406 204.980469 84.101562 C 200.0625 78.847656 193.382812 75.953125 186.171875 75.953125 C 178.960938 75.953125 172.285156 78.847656 167.363281 84.101562 C 163.308594 88.441406 157.5625 90.804688 151.617188 90.617188 C 144.429688 90.304688 137.652344 93.03125 132.550781 98.121094 C 127.449219 103.203125 124.777344 109.96875 125.019531 117.15625 C 125.230469 123.089844 122.847656 128.820312 118.5 132.871094 C 113.238281 137.78125 110.335938 144.445312 110.335938 151.644531 C 110.335938 158.839844 113.238281 165.503906 118.5 170.414062 C 122.847656 174.464844 125.230469 180.199219 125.019531 186.132812 C 124.667969 196.566406 130.601562 206.085938 140.121094 210.40625 L 142.25 205.734375 C 134.628906 202.277344 129.878906 194.652344 130.160156 186.300781 C 130.410156 178.886719 127.4375 171.730469 122.015625 166.667969 C 117.796875 162.738281 115.476562 157.398438 115.476562 151.644531 C 115.476562 145.890625 117.796875 140.546875 122.015625 136.621094 C 127.4375 131.558594 130.410156 124.402344 130.160156 116.984375 C 129.96875 111.230469 132.105469 105.820312 136.183594 101.75 C 140.261719 97.679688 145.664062 95.578125 151.449219 95.738281 C 158.839844 96.007812 166.050781 93.03125 171.121094 87.597656 C 175.054688 83.398438 180.410156 81.082031 186.171875 81.082031 C 191.9375 81.082031 197.289062 83.398438 201.226562 87.609375 C 206.296875 93.03125 213.476562 96.007812 220.898438 95.738281 C 229.28125 95.476562 236.902344 100.195312 240.367188 107.804688 " fill-opacity="1" fill-rule="nonzero"/></g><g clip-path="url(#id2)"><path fill="#100f0d" d="M 242.1875 186.300781 C 242.378906 192.054688 240.238281 197.46875 236.160156 201.535156 C 232.085938 205.605469 226.703125 207.730469 220.898438 207.550781 C 213.488281 207.289062 206.296875 210.257812 201.226562 215.679688 C 193.875 223.527344 181.582031 224.398438 173.230469 217.644531 L 169.996094 221.632812 C 174.703125 225.441406 180.429688 227.316406 186.132812 227.316406 C 193.050781 227.316406 199.941406 224.558594 204.980469 219.1875 C 209.039062 214.847656 214.773438 212.460938 220.726562 212.671875 C 227.917969 212.933594 234.703125 210.257812 239.796875 205.164062 C 244.898438 200.082031 247.570312 193.316406 247.316406 186.132812 C 247.125 180.199219 249.496094 174.464844 253.84375 170.414062 C 263.664062 161.246094 264.75 145.910156 256.296875 135.496094 L 252.296875 138.734375 C 259.054688 147.0625 258.191406 159.332031 250.332031 166.667969 C 244.90625 171.730469 241.933594 178.886719 242.1875 186.300781 " fill-opacity="1" fill-rule="nonzero"/></g><g clip-path="url(#id3)"><path fill="#100f0d" d="M 254.1875 124.953125 L 239.242188 134.273438 L 236.996094 132.027344 L 246.332031 117.117188 C 247.386719 115.441406 249.195312 114.4375 251.164062 114.4375 C 254.308594 114.4375 256.867188 116.984375 256.867188 120.132812 C 256.867188 122.097656 255.863281 123.910156 254.1875 124.953125 Z M 179.746094 208.3125 L 162.816406 191.414062 L 226.019531 128.332031 L 242.949219 145.230469 Z M 159.429688 219.527344 C 158.375 221.199219 156.570312 222.203125 154.601562 222.203125 C 151.457031 222.203125 148.898438 219.65625 148.898438 216.511719 C 148.898438 214.535156 149.902344 212.742188 151.578125 211.6875 L 166.519531 202.367188 L 168.769531 204.613281 Z M 251.164062 109.308594 C 247.40625 109.308594 243.972656 111.210938 241.976562 114.390625 L 233.257812 128.3125 L 227.835938 122.886719 C 226.832031 121.886719 225.207031 121.886719 224.203125 122.886719 L 157.363281 189.597656 C 156.359375 190.601562 156.359375 192.226562 157.363281 193.226562 L 162.796875 198.648438 L 148.847656 207.339844 C 145.664062 209.324219 143.757812 212.761719 143.757812 216.511719 C 143.757812 222.484375 148.617188 227.335938 154.601562 227.335938 C 158.355469 227.335938 161.792969 225.429688 163.789062 222.253906 L 172.503906 208.332031 L 177.929688 213.753906 C 178.429688 214.253906 179.082031 214.503906 179.746094 214.503906 C 180.410156 214.503906 181.0625 214.253906 181.5625 213.753906 L 248.402344 147.042969 C 249.40625 146.039062 249.40625 144.417969 248.402344 143.414062 L 242.96875 137.992188 L 256.917969 129.304688 C 260.101562 127.320312 262.007812 123.878906 262.007812 120.132812 C 262.007812 114.160156 257.148438 109.308594 251.164062 109.308594 " fill-opacity="1" fill-rule="nonzero"/></g><path fill="#100f0d" d="M 186.703125 148.546875 L 162.28125 124.171875 L 158.648438 127.800781 L 183.070312 152.175781 L 186.703125 148.546875 " fill-opacity="1" fill-rule="nonzero"/><path fill="#100f0d" d="M 199.558594 135.71875 L 181.5625 117.757812 L 177.929688 121.386719 L 195.921875 139.34375 L 199.558594 135.71875 " fill-opacity="1" fill-rule="nonzero"/><path fill="#100f0d" d="M 173.851562 161.375 L 155.855469 143.414062 L 152.222656 147.042969 L 170.214844 165.003906 L 173.851562 161.375 " fill-opacity="1" fill-rule="nonzero"/><path fill="#100f0d" d="M 147.078125 167.570312 L 157.363281 177.832031 L 160.996094 174.203125 L 150.714844 163.941406 L 147.078125 167.570312 " fill-opacity="1" fill-rule="nonzero"/><path fill="#100f0d" d="M 212.414062 122.886719 L 202.128906 112.625 L 198.492188 116.253906 L 208.777344 126.515625 L 212.414062 122.886719 " fill-opacity="1" fill-rule="nonzero"/></svg>